<svg viewBox="0 0 128.65 35.686" xmlns="http://www.w3.org/2000/svg">
  <g fill="#0f0e0f">
    <path d="m25.265 15.369h-10.678c-0.2755 0-0.4991 0.2236-0.4991 0.4991v5.2205c0 0.2755 0.2236 0.4995 0.4991 0.4995h4.1653v6.4862s-0.9352 0.3186-3.5211 0.3186c-3.0505 0-7.312-1.1144-7.312-10.486 0-9.373 4.4376-10.606 8.6036-10.606 3.6062 0 5.1598 0.63501 6.1483 0.94087 0.3108 0.0949 0.598-0.21414 0.598-0.48966l1.1913-5.044c0-0.12912-0.0437-0.28434-0.1905-0.38982-0.4015-0.28646-2.8508-1.657-9.0386-1.657-7.1279 0-14.44 3.0328-14.44 17.611 0 14.579 8.3715 16.751 15.426 16.751 5.841 0 9.3843-2.4959 9.3843-2.4959 0.1461-0.0805 0.162-0.2847 0.162-0.3782v-16.282c0-0.2755-0.2233-0.4991-0.4989-0.4991"/>
    <path d="m80.292 2.4079c0-0.27764-0.2202-0.50201-0.4957-0.50201h-6.0121c-0.2748 0-0.4977 0.22437-0.4977 0.50201 0 0.00141 0.0014 11.619 0.0014 11.619h-9.3713v-11.619c0-0.27764-0.2212-0.50201-0.4963-0.50201h-6.0118c-0.2734 0-0.4963 0.22437-0.4963 0.50201v31.46c0 0.2773 0.2229 0.5031 0.4963 0.5031h6.0118c0.2751 0 0.4963-0.2258 0.4963-0.5031v-13.457h9.3713s-0.0163 13.456-0.0163 13.457c0 0.2773 0.2226 0.5031 0.4982 0.5031h6.0262c0.2751 0 0.4953-0.2258 0.496-0.5031z"/>
    <path d="m36.61 6.5354c0-2.1647-1.7356-3.9141-3.877-3.9141-2.1393 0-3.876 1.7494-3.876 3.9141 0 2.1625 1.7367 3.917 3.876 3.917 2.1414 0 3.877-1.7544 3.877-3.917"/>
    <path d="m36.18 27.23v-14.522c0-0.2755-0.2223-0.5009-0.4975-0.5009h-5.993c-0.2752 0-0.5211 0.2833-0.5211 0.5591v20.806c0 0.6111 0.3811 0.7931 0.8742 0.7931h5.3997c0.5923 0 0.7377-0.2911 0.7377-0.8029z"/>
    <path d="m103.14 12.254h-5.9658c-0.2738 0-0.4964 0.2254-0.4964 0.5031v15.426s-1.5159 1.1092-3.6671 1.1092c-2.1513 0-2.7221-0.9762-2.7221-3.0826v-13.452c0-0.2777-0.2223-0.5031-0.496-0.5031h-6.0551c-0.2731 0-0.4971 0.2254-0.4971 0.5031v14.471c0 6.2565 3.4869 7.7872 8.2836 7.7872 3.9357 0 7.1086-2.1742 7.1086-2.1742s0.1506 1.1459 0.2194 1.2817c0.0681 0.1355 0.2462 0.2723 0.4388 0.2723l3.8522-0.0169c0.273 0 0.497-0.2258 0.497-0.5024l-2e-3 -21.118c0-0.2777-0.223-0.5031-0.498-0.5031"/>
    <path d="m117.09 29.276c-2.069-0.0631-3.473-1.0019-3.473-1.0019v-9.9628s1.385-0.8488 3.084-1.0005c2.148-0.1923 4.219 0.4565 4.219 5.5817 0 5.4042-0.935 6.471-3.83 6.3835m2.354-17.725c-3.389 0-5.694 1.512-5.694 1.512v-10.653c0-0.27763-0.222-0.502-0.496-0.502h-6.029c-0.274 0-0.497 0.22437-0.497 0.502v31.46c0 0.2776 0.223 0.5034 0.498 0.5034h4.183c0.188 0 0.331-0.0974 0.436-0.2674 0.104-0.169 0.254-1.4503 0.254-1.4503s2.466 2.3361 7.132 2.3361c5.48 0 8.622-2.7792 8.622-12.476s-5.019-10.964-8.409-10.964"/>
    <path d="m53.459 12.205h-4.5099s-0.0067-5.9567-0.0067-5.9581c0-0.22542-0.1161-0.33831-0.3771-0.33831h-6.1455c-0.2388 0-0.3672 0.10548-0.3672 0.33514v6.1568s-3.0798 0.7433-3.2879 0.8036c-0.2075 0.06-0.3602 0.2512-0.3602 0.4794v3.869c0 0.2779 0.2222 0.5027 0.497 0.5027h3.1511v9.3077c0 6.9131 4.8493 7.5922 8.1213 7.5922 1.4955 0 3.2841-0.4801 3.5793-0.5892 0.1785-0.0656 0.2826-0.2504 0.2826-0.4508l5e-3 -4.2563c0-0.2776-0.2346-0.5024-0.4985-0.5024-0.2628 0-0.9352 0.1069-1.6274 0.1069-2.2151 0-2.9658-1.0297-2.9658-2.3629 0-1.3324-4e-4 -8.8452-4e-4 -8.8452h4.5103c0.2748 0 0.4978-0.2248 0.4978-0.5027v-4.8462c0-0.2776-0.223-0.5013-0.4978-0.5013"/>
  </g>
</svg>
