<svg viewBox="0 0 502.45 65.213" xmlns="http://www.w3.org/2000/svg">
  <path fill="#1e1b1d" d="m23.35 39.506-7.17-0.635c-5.63-0.453-7.81-2.724-7.81-6.539 0-4.54 3.45-7.357 9.99-7.357 4.63 0 8.71 1.091 11.9 3.543l4.26-4.269c-4-3.269-9.71-4.812-16.07-4.812-9.54 0-16.44 4.9-16.44 13.077 0 7.356 4.63 11.261 13.35 11.988l7.36 0.635c5.17 0.455 7.44 2.634 7.44 6.539 0 5.268-4.54 7.9-11.89 7.9-5.55 0-10.36-1.453-13.91-5.177l-4.36 4.36c4.91 4.725 10.81 6.445 18.35 6.445 10.81 0 18.17-4.997 18.17-13.619 0-8.358-5.36-11.353-13.18-12.081zm55.91-20.071c-7.17 0-11.68 1.413-15.64 6.423-0.05 0.069 4.29 4.292 4.29 4.292 2.63-3.723 5.54-5.084 11.26-5.084 8.17 0 11.44 3.269 11.44 9.807v4.268h-13.43c-9.99 0-15.44 5.087-15.44 12.9-0.11 3.349 1.1 6.607 3.36 9.082 2.81 2.911 6.45 4.091 12.62 4.091 6 0 9.27-1.18 12.9-4.818v4.268h6.54v-30.335c0-9.717-5.9-14.892-17.89-14.892zm11.36 29.429c0 3.725-0.73 6.268-2.27 7.72-2.82 2.725-6.18 3-9.99 3-7.09 0-10.27-2.453-10.27-7.63s3.27-7.9 10-7.9h12.53zm32.15-23.611c4.27 0 6.9 1.271 10.26 4.994 0 0 4.38-4.255 4.34-4.293-4.58-4.905-8.47-6.513-14.6-6.513-11.26 0-19.8 7.628-19.8 22.885s8.54 22.888 19.8 22.888c6.18 0 10.08-1.64 14.71-6.631l-4.45-4.269c-3.36 3.724-5.99 5.086-10.26 5.086-4.09 0.163-7.98-1.75-10.35-5.086-2.09-2.906-2.91-6.357-2.91-11.988s0.82-9.082 2.91-11.988c2.37-3.337 6.26-5.25 10.35-5.085zm56-5.334h-8.15l-20.26 19.72 0.03-39.639h-6.54v64.664h6.54l-0.03-16.309 7.93-7.959 14.99 24.268h8.08l-18.54-28.8zm30.21-1.1c-6.7 0-11.22 2.611-14.01 5.57-4.09 4.265-5.13 9.4-5.13 17.582 0 8.268 1.04 13.4 5.13 17.669 2.79 2.959 7.31 5.574 14.01 5.574 6.71 0 11.32-2.615 14.1-5.574 4.1-4.265 5.14-9.4 5.14-17.669 0-8.181-1.04-13.317-5.14-17.582-2.78-2.959-7.39-5.57-14.1-5.57zm5.31 34.206c-1.41 1.37-3.33 2.094-5.31 2-1.94 0.094-3.83-0.631-5.22-2-2.35-2.35-2.61-6.353-2.61-11.054s0.26-8.616 2.61-10.966c1.39-1.369 3.28-2.094 5.22-2 1.98-0.094 3.9 0.629 5.31 2 2.35 2.35 2.62 6.266 2.62 10.966s-0.27 8.7-2.62 11.054zm44.06-33.686-9.14 28.025-9.22-28.027h-11.93l16.71 45.347h8.88l16.62-45.347zm31.17-0.522c-11.75 0-19.75 8.355-19.75 23.152 0 18.366 10.27 23.235 20.97 23.235 8.18 0 12.62-2.52 17.24-7.134l-6.88-6.7c-2.87 2.873-5.31 4.265-10.27 4.265-6.36 0-9.92-4.265-9.92-10.1h28.37v-5.045c0-12.447-7.14-21.673-19.76-21.673zm-8.61 18.974c0.01-1.678 0.37-3.336 1.04-4.874 1.43-2.878 4.36-4.699 7.57-4.699 3.22 0 6.15 1.821 7.58 4.699 0.67 1.538 1.02 3.196 1.04 4.874zm45.06-14.1v-4.352h-11.05v45.345h11.31v-27.327c0-5.745 3.83-8.357 7.31-8.357 2.3-0.079 4.5 0.904 5.97 2.666l8.57-8.584c-3.13-3.134-6.27-4.265-10.71-4.265-4.31-0.051-8.45 1.718-11.4 4.874zm25.62-9.079v50.032h11.31v-35.758h8.36v-8.616h-8.36v-4.961c0-2.611 1.31-4.091 4-4.091h4.36v-9.573h-6.44c-9.23 0-13.23 6.527-13.23 12.967zm66.25 4.2c-6.7 0-11.23 2.611-14.01 5.57-4.09 4.265-5.14 9.4-5.14 17.582 0 8.268 1.05 13.4 5.14 17.669 2.78 2.959 7.31 5.571 14.01 5.571s11.32-2.612 14.1-5.571c4.09-4.265 5.14-9.4 5.14-17.669 0-8.181-1.05-13.317-5.14-17.582-2.78-2.959-7.4-5.57-14.1-5.57zm5.31 34.206c-1.42 1.37-3.34 2.094-5.31 2-1.94 0.094-3.84-0.631-5.22-2-2.35-2.35-2.61-6.353-2.61-11.054s0.26-8.616 2.61-10.966c1.38-1.369 3.28-2.094 5.22-2 1.97-0.094 3.89 0.629 5.31 2 2.35 2.35 2.61 6.266 2.61 10.966s-0.26 8.7-2.61 11.054zm67.38-33.684-7.31 28.03-9.31-28.025h-8.27l-9.23 28.025-7.3-28.027h-12.02l13.93 45.347h9.31l9.49-28.46 9.49 28.46h9.31l13.84-45.347zm-102.58 31.687v-49.376h-11.31v50.072c0 6.441 3.92 12.967 13.23 12.967h6.44v-9.573h-4.35c-2.87 0-4-1.392-4-4.09zm-333.3-24.011 6.05-6.046h-12.38v-14.7h-6.54v46.412c0 6.629 3.81 11.988 11.44 11.988h4.63v-5.631h-3.45c-4.18 0-6.08-2.453-6.08-6.539v-25.484z"/>
</svg>
