<svg version="1.1" viewBox="0 0 24 24" xmlns="http://www.w3.org/2000/svg">
  <defs>
    <radialGradient id="radialGradient1415-6-8" cx="12" cy="12" r="9.8298" gradientTransform="matrix(1 0 0 1.0001 -.00017 -.00164)" gradientUnits="userSpaceOnUse">
      <stop stop-color="#dd8622" offset="0"/>
      <stop stop-color="#dd6f24" offset="1"/>
    </radialGradient>
  </defs>
  <path d="m8.5368 14a4 4 0 0 1 4.0002 0 4 4 0 0 1 2 3.464 4 4 0 0 1-2 3.464m-2.002-3.463a1 1 0 0 0-0.5 0.866 1 1 0 0 0 0.5 0.866 1 1 0 0 0 1 0m-1.9992-3.465a2 2 0 0 1 2.0002 0 2 2 0 0 1 1 1.733 2 2 0 0 1-1 1.732m-2.0012-3.465a3 3 0 0 0-1.5 2.599 3 3 0 0 0 1.5 2.598 3 3 0 0 0 3.0002 0m-2.534-12.394a4 4 0 0 1 0 4.0002 4 4 0 0 1-3.4642 2 4 4 0 0 1-3.4639-2m14.391 0.929a1 1 0 0 0 0.866 0.5 1 1 0 0 0 0.866-0.5 1 1 0 0 0 0-1m-3.464 2a2 2 0 0 1 0-2 2 2 0 0 1 1.732-1 2 2 0 0 1 1.732 1m-3.464 2a3 3 0 0 0 2.598 1.5 3 3 0 0 0 2.598-1.5 3 3 0 0 0 0-3m-6.928 4a4 4 0 0 1 0-4 4 4 0 0 1 3.464-2.0002 4 4 0 0 1 3.464 2.0002m-14.392-0.929a1 1 0 0 0-0.866-0.5 1 1 0 0 0-0.866 0.5 1 1 0 0 0 0 1m3.465-2.0002a2 2 0 0 1 0 2.0002 2 2 0 0 1-1.732 1 2 2 0 0 1-1.732-1m3.463-2.0002a3 3 0 0 0-2.598-1.5 3 3 0 0 0-2.5979 1.5 3 3 0 0 0 0 3.0002m10.392-6.0002a1 1 0 0 0 0.5-0.866 1 1 0 0 0-0.5-0.866 1 1 0 0 0-1 0m2.001 3.464a2 2 0 0 1-2 0 2 2 0 0 1-1-1.732 2 2 0 0 1 1-1.732m1.999 3.464a3 3 0 0 0 1.5-2.598 3 3 0 0 0-1.5-2.598 3 3 0 0 0-3 0m4.001 6.928a4 4 0 0 1-4 0 4 4 0 0 1-2.0002-3.464 4 4 0 0 1 2.0002-3.464" fill="none" stop-color="#000000" stroke="url(#radialGradient1415-6-8)" stroke-linecap="round"/>
</svg>
