<svg viewBox="0 0 614.4 614.4" xmlns="http://www.w3.org/2000/svg" xmlns:xlink="http://www.w3.org/1999/xlink">
  <defs>
    <filter id="filter" x="-.072431" y="-.1197" width="1.1449" height="1.3142" color-interpolation-filters="sRGB">
      <feFlood flood-color="rgb(0,0,0)" flood-opacity=".33" result="flood"/>
      <feComposite in="flood" in2="SourceGraphic" operator="in" result="composite1"/>
      <feGaussianBlur in="composite1" result="blur" stdDeviation="0.2"/>
      <feOffset dx="0" dy="0.3" result="offset"/>
      <feComposite in="SourceGraphic" in2="offset" result="composite2"/>
    </filter>
    <clipPath id="clip">
      <use width="100%" height="100%" xlink:href="#pin"/>
    </clipPath>
    <filter id="filter1533" x="-.05625" y="-.05625" width="1.1125" height="1.132" color-interpolation-filters="sRGB">
      <feFlood flood-color="rgb(0,0,0)" flood-opacity=".24706" result="flood"/>
      <feComposite in="flood" in2="SourceGraphic" operator="in" result="composite1"/>
      <feGaussianBlur in="composite1" result="blur" stdDeviation="12"/>
      <feOffset dx="2.77556e-17" dy="10" result="offset"/>
      <feComposite in="SourceGraphic" in2="offset" result="composite2"/>
    </filter>
    <filter id="filter1713" x="-.089999" y="-.044972" width="1.18" height="1.0899" color-interpolation-filters="sRGB">
      <feFlood flood-color="rgb(0,0,0)" flood-opacity=".24706" result="flood"/>
      <feComposite in="flood" in2="SourceGraphic" operator="in" result="composite1"/>
      <feGaussianBlur in="composite1" result="blur" stdDeviation="0.3"/>
      <feOffset dx="2.77556e-17" dy="2.77556e-17" result="offset"/>
      <feComposite in="SourceGraphic" in2="offset" result="composite2"/>
    </filter>
  </defs>
  <g transform="translate(1287.4,51.2)">
    <rect x="-1236.2" y="7.6294e-7" width="512" height="512" rx="85.999" ry="85.999" fill="#fff" filter="url(#filter1533)" stop-color="#000000"/>
    <g transform="matrix(24.984,0,0,24.984,-1276,-45.683)" filter="url(#filter1713)">
      <path id="pin" d="m11.939 10a4 4 0 0 0-3.939 4 4 4 0 0 0 0 0.061v5.939l5.533-2.305a4 4 0 0 0 2.467-3.695 4 4 0 0 0-4-4 4 4 0 0 0-0.061 0zm0.061 2.5a1.5 1.5 0 0 1 1.5 1.5 1.5 1.5 0 0 1-1.5 1.5 1.5 1.5 0 0 1-1.5-1.5 1.5 1.5 0 0 1 1.5-1.5z" fill="#56ab2f"/>
      <path d="m11.94 9.99c-2.184 0-3.941 1.82-3.94 4.01l5.535-2.321c0.404-0.167 0.769-0.401 1.092-0.683-0.704-0.619-1.616-1.006-2.627-1.006z" clip-path="url(#clip)" fill="#56ab2f" filter="url(#filter)"/>
      <path d="m11.939 3.99c-2.184 0-3.94 1.82-3.939 4v6.01l5.535-2.32c1.448-0.6 2.465-2.02 2.465-3.69 0-2.21-1.791-4-4-4zm0.06 2.5a1.5 1.5 0 0 1 1.5 1.5 1.5 1.5 0 0 1-1.5 1.5 1.5 1.5 0 0 1-1.5-1.5 1.5 1.5 0 0 1 1.5-1.5z" fill="#70ae28"/>
    </g>
  </g>
</svg>
