<svg viewBox="0 0 12031 8750.1" xmlns="http://www.w3.org/2000/svg">
  <clipPath id="SVGID_2_">
    <path d="m11211 0h-10391c-451.18 0-820.32 369.14-820.32 820.32v7109.5c0 451.18 369.14 820.32 820.32 820.32h10391c451.18 0 820.32-369.14 820.32-820.32v-7109.5c0-451.18-369.14-820.32-820.32-820.32z"/>
  </clipPath>
  <linearGradient id="SVGID_3_" x1="-607.3" x2="56717" y1="43959" y2="-13366" gradientTransform="matrix(.125 0 0 -.125 3584.6 3978.1)" gradientUnits="userSpaceOnUse">
    <stop stop-color="#262626" stop-opacity=".2" offset="0"/>
    <stop stop-color="#262626" stop-opacity=".02" offset="1"/>
  </linearGradient>
  <clipPath id="SVGID_5_">
    <path d="m11211 0h-10391c-451.18 0-820.32 369.14-820.32 820.32v7109.5c0 451.18 369.14 820.32 820.32 820.32h10391c451.18 0 820.32-369.14 820.32-820.32v-7109.5c0-451.18-369.14-820.32-820.32-820.32z"/>
  </clipPath>
  <radialGradient id="SVGID_6_" cx="-26516" cy="30192" r="113677" gradientTransform="matrix(.125 0 0 -.125 3584.6 3978.1)" gradientUnits="userSpaceOnUse">
    <stop stop-color="#fff" stop-opacity=".1" offset="0"/>
    <stop stop-color="#fff" stop-opacity="0" offset="1"/>
  </radialGradient>
  <rect x="1367.2" y="1982.4" width="9297" height="6767.7" fill="#e1e1e1"/>
  <polygon points="6015.7 5369 1367.2 8750.1 10664 8750.1 10664 1982.4" fill="#eee"/>
  <polygon points="10664 2050.8 10664 1982.4 6015.7 5369 1367.2 8750.1 1461.5 8750.1 6015.7 5437.4" fill="#fff" fill-opacity=".4"/>
  <path d="m0 820.32v7109.5c0 451.18 369.14 820.32 820.32 820.32h546.88v-7929.8h-1367.2z" fill="#d23f31"/>
  <path d="m10664 820.32v7929.8h546.88c451.18 0 820.32-369.14 820.32-820.32v-7109.5h-1367.2z" fill="#c53929"/>
  <path d="m240.63 1400 7349.4 7350.1h3621c451.18 0 820.32-369.14 820.32-820.32v-7109.5l-11791 579.69z" fill="url(#SVGID_3_)"/>
  <path d="m11211 0-5195.4 3554.7-5195.4-3554.7c-451.18 0-820.32 369.14-820.32 820.32 0 280.96 141.5 529.11 356.84 676.77l5658.9 3871.9 5658.9-3871.9c215.33-147.66 356.84-395.8 356.84-676.77 0-451.18-369.14-820.32-820.32-820.32z" fill="#db4437"/>
  <g fill-opacity=".2">
    <path d="m11211 8681.7h-10391c-451.18 0-820.32-369.14-820.32-820.32v68.36c0 451.18 369.14 820.32 820.32 820.32h10391c451.18 0 820.32-369.14 820.32-820.32v-68.36c1e-3 451.18-369.14 820.32-820.32 820.32z" fill="#262626"/>
    <g fill="#fff">
      <path d="m11211 0-99.807 68.36h99.807c451.18 0 820.32 369.14 820.32 820.32v-68.36c1e-3 -451.18-369.14-820.32-820.32-820.32z"/>
      <path d="m820.32 68.36h99.806l-99.806-68.36c-451.18 0-820.32 369.14-820.32 820.32v68.36c0-451.18 369.14-820.32 820.32-820.32z"/>
    </g>
  </g>
  <path d="m11675 1428.7-5658.9 3871.9-5658.9-3871.9c-206.25-141.43-344.68-375.08-356-641.42-0.44 10.967-0.842 21.946-0.842 33.016 0 280.96 141.5 529.11 356.84 676.77l5658.9 3871.9 5658.9-3871.9c215.33-147.66 356.84-395.8 356.84-676.77 0-11.07-0.401-22.048-0.842-33.015-11.317 266.34-149.75 499.99-356 641.42z" fill="#3e2723" fill-opacity=".25"/>
  <polygon points="11211 0 820.32 0 6015.7 3554.7" fill="#f1f1f1"/>
  <polygon points="11111 68.36 11211 0 820.32 0 920.13 68.36" fill="#262626" fill-opacity=".02"/>
  <path d="m11211 0h-10391c-451.18 0-820.32 369.14-820.32 820.32v7109.5c0 451.18 369.14 820.32 820.32 820.32h10391c451.18 0 820.32-369.14 820.32-820.32v-7109.5c0-451.18-369.14-820.32-820.32-820.32z" fill="url(#SVGID_6_)"/>
</svg>
