<svg viewBox="0 0 333.71 212.36" xmlns="http://www.w3.org/2000/svg">
  <g fill="#dc4e41">
    <path d="m106.18 91.013v36.404h60.218c-2.427 15.623-18.203 45.808-60.218 45.808-36.253 0-65.831-30.033-65.831-67.044 0-37.01 29.578-67.045 65.831-67.045 20.629 0 34.431 8.7987 42.319 16.383l28.82-27.759c-18.505-17.291-42.472-27.757-71.139-27.757-58.702 0-106.18 47.476-106.18 106.18 0 58.702 47.478 106.18 106.18 106.18 61.279 0 101.93-43.079 101.93-103.75 0-6.977-0.759-12.286-1.669-17.595h-100.26z"/>
    <path d="m333.7 91.013h-30.336v-30.337h-30.337v30.337h-30.336v30.336h30.336v30.337h30.337v-30.337h30.336z"/>
  </g>
</svg>
